<svg xmlns="http://www.w3.org/2000/svg" xmlns:xlink="http://www.w3.org/1999/xlink">
	
<symbol id="github" fill-rule="evenodd" clip-rule="evenodd" stroke-linejoin="round" stroke-miterlimit="1.414">
	<circle
	cx="13.231285"
	cy="13.231285"
	r="13.231285"
	style="fill:#000000;fill-opacity:1"/>
	<path
d="m 13.150547,1.307931 c -6.63,0 -12,5.373 -12,12 0,5.303 3.438,9.8 8.205,11.385 0.6,0.113 0.82,-0.258 0.82,-0.577 0,-0.285 -0.01,-1.04 -0.015,-2.04 -3.338,0.724 -4.042,-1.61 -4.042,-1.61 -0.546,-1.385 -1.335,-1.755 -1.335,-1.755 -1.087,-0.744 0.084,-0.729 0.084,-0.729 1.205,0.084 1.838,1.236 1.838,1.236 1.07,1.835 2.809,1.305 3.495,0.998 0.108,-0.776 0.417,-1.305 0.76,-1.605 -2.665,-0.3 -5.466,-1.332 -5.466,-5.93 0,-1.31 0.465,-2.38 1.235,-3.22 -0.135,-0.303 -0.54,-1.523 0.105,-3.176 0,0 1.005,-0.322 3.3,1.23 0.96,-0.267 1.98,-0.399 3,-0.405 1.02,0.006 2.04,0.138 3,0.405 2.28,-1.552 3.285,-1.23 3.285,-1.23 0.645,1.653 0.24,2.873 0.12,3.176 0.765,0.84 1.23,1.91 1.23,3.22 0,4.61 -2.805,5.625 -5.475,5.92 0.42,0.36 0.81,1.096 0.81,2.22 0,1.606 -0.015,2.896 -0.015,3.286 0,0.315 0.21,0.69 0.825,0.57 4.801,-1.574 8.236,-6.074 8.236,-11.369 0,-6.627 -5.373,-12 -12,-12" style="fill:#ffffff;fill-opacity:1"/></symbol>
	
<symbol id="linkedin" fill-rule="evenodd" clip-rule="evenodd" stroke-linejoin="round" stroke-miterlimit="1.414">
	<rect
	 width="21.762712"
	 height="20.974577"
	 x="0.76271194"
	 y="1.7542373"
	 style="fill:#ffffff;fill-opacity:1;stroke-width:2.39086342" />
	<path
	d="M20.447 20.452h-3.554v-5.569c0-1.328-.027-3.037-1.852-3.037-1.853 0-2.136 1.445-2.136 2.939v5.667H9.351V9h3.414v1.561h.046c.477-.9 1.637-1.85 3.37-1.85 3.601 0 4.267 2.37 4.267 5.455v6.286zM5.337 7.433c-1.144 0-2.063-.926-2.063-2.065 0-1.138.92-2.063 2.063-2.063 1.14 0 2.064.925 2.064 2.063 0 1.139-.925 2.065-2.064 2.065zm1.782 13.019H3.555V9h3.564v11.452zM22.225 0H1.771C.792 0 0 .774 0 1.729v20.542C0 23.227.792 24 1.771 24h20.451C23.2 24 24 23.227 24 22.271V1.729C24 .774 23.2 0 22.222 0h.003z"/>
	
	</symbol>
					
</svg>
	